<svg width="120" height="138" viewBox="0 0 120 138" fill="none" xmlns="http://www.w3.org/2000/svg">
<path d="M90.1193 59.707C90.1193 66.9801 87.5411 73.6498 83.2486 78.8562C76.7292 86.7593 77.1708 96.1127 77.1492 96.2405H42.854C42.821 96.0574 43.3877 87.0438 36.5787 78.6382C32.2483 73.2893 29.7164 66.4268 29.8924 58.9692C30.274 43.0102 43.286 29.9939 59.2451 29.5999C76.2227 29.1851 90.1193 42.8217 90.1193 59.707Z" fill="#BAD0E6"/>
<path d="M42.8736 103.997H77.1298C79.2718 103.997 81.0082 102.261 81.0082 100.119C81.0082 97.9767 79.2718 96.2402 77.1298 96.2402H42.8736C40.7316 96.2402 38.9951 97.9767 38.9951 100.119C38.9951 102.261 40.7316 103.997 42.8736 103.997Z" fill="white"/>
<path d="M42.8736 111.754H77.1298C79.2718 111.754 81.0082 110.018 81.0082 107.876C81.0082 105.734 79.2718 103.997 77.1298 103.997H42.8736C40.7316 103.997 38.9951 105.734 38.9951 107.876C38.9951 110.018 40.7316 111.754 42.8736 111.754Z" fill="white"/>
<path d="M72.3179 111.754C72.3179 118.553 66.8012 124.066 60.0017 124.066C53.1981 124.066 47.6855 118.553 47.6855 111.754H72.3179Z" fill="#392B9E"/>
<path d="M113.732 62.9156C113.732 65.0065 112.043 66.6952 109.953 66.6952H103.014C100.923 66.6952 99.2344 65.0065 99.2344 62.9156C99.2344 60.8248 100.923 59.1361 103.014 59.1361H109.953C112.043 59.1361 113.732 60.8248 113.732 62.9156Z" fill="white"/>
<path d="M63.7827 12.9661V19.9048C63.7827 21.9956 62.094 23.6843 60.0032 23.6843C57.9123 23.6843 56.2236 21.9956 56.2236 19.9048V12.9661C56.2236 10.8752 57.9123 9.18657 60.0032 9.18657C62.094 9.18657 63.7827 10.8752 63.7827 12.9661Z" fill="white"/>
<path d="M32.2602 29.8303C33.7421 31.3008 33.7421 33.7017 32.2602 35.1722C31.5249 35.9074 30.56 36.2864 29.5951 36.2864C28.6187 36.2864 27.6535 35.9074 26.9183 35.1722L22.0128 30.2667C20.5309 28.7963 20.5309 26.3953 22.0128 24.9249C22.7481 24.1896 23.713 23.8219 24.6781 23.8219C25.6546 23.8219 26.6197 24.1896 27.3549 24.9249L32.2602 29.8303Z" fill="white"/>
<path d="M20.7719 62.9156C20.7719 65.0065 19.0832 66.6952 16.9924 66.6952H10.0539C7.96309 66.6952 6.27441 65.0065 6.27441 62.9156C6.27441 60.8248 7.96309 59.1361 10.0539 59.1361H16.9926C19.0832 59.1361 20.7719 60.8248 20.7719 62.9156Z" fill="white"/>
<path d="M97.9936 24.9251C99.4755 26.3956 99.4755 28.7965 97.9936 30.267L93.0881 35.1724C92.3529 35.9077 91.3879 36.2866 90.4113 36.2866C89.4464 36.2866 88.4812 35.9077 87.7462 35.1724C86.2643 33.702 86.2643 31.301 87.7462 29.8306L92.6515 24.9253C93.3867 24.1901 94.3516 23.8109 95.3283 23.8109C96.2932 23.8106 97.2583 24.1899 97.9936 24.9251Z" fill="white"/>
<path d="M73.5907 52.9034V72.9279C73.5907 73.3109 73.4386 73.6784 73.1676 73.9493L71.0346 76.0824C70.7636 76.3533 70.3964 76.5054 70.0132 76.5054H49.9886C49.6057 76.5054 49.2382 76.3533 48.9672 76.0824L46.8342 73.9493C46.5632 73.6784 46.4111 73.3111 46.4111 72.9279V52.9034C46.4111 52.5204 46.5632 52.1529 46.8342 51.882L48.9672 49.7489C49.2382 49.478 49.6054 49.3259 49.9886 49.3259H70.0132C70.3961 49.3259 70.7636 49.478 71.0346 49.7489L73.1676 51.882C73.4386 52.1529 73.5907 52.5204 73.5907 52.9034Z" fill="#392B9E"/>
<path d="M58.9175 69.262C59.5524 69.262 60.0664 68.7483 60.0664 68.1131V62.8931V60.2824C60.0664 58.2103 58.3803 56.5242 56.307 56.5242C54.2349 56.5242 52.5488 58.2103 52.5488 60.2824V62.8931V68.1131C52.5488 68.748 53.0626 69.262 53.6977 69.262C54.3327 69.262 54.8466 68.7483 54.8466 68.1131V64.0418H57.7691V68.1131C57.7688 68.7483 58.2826 69.262 58.9175 69.262ZM54.8464 61.7444V60.2826C54.8464 59.4771 55.5015 58.822 56.307 58.822C57.1126 58.822 57.7688 59.4771 57.7688 60.2826V61.7444H54.8464Z" fill="white"/>
<path d="M66.3048 58.822C66.9397 58.822 67.4537 58.3083 67.4537 57.6731C67.4537 57.0382 66.94 56.5242 66.3048 56.5242H62.5522C61.9173 56.5242 61.4033 57.038 61.4033 57.6731C61.4033 58.308 61.9171 58.822 62.5522 58.822H63.2793V67.2429H62.5522C61.9173 67.2429 61.4033 67.7566 61.4033 68.3918C61.4033 69.0269 61.9171 69.5407 62.5522 69.5407H66.3048C66.9397 69.5407 67.4537 69.0269 67.4537 68.3918C67.4537 67.7566 66.94 67.2429 66.3048 67.2429H65.5766V58.822H66.3048Z" fill="white"/>
<path d="M28.7389 58.9385C28.5673 66.3563 31.0325 73.6069 35.6803 79.3554C39.3764 83.9203 40.8012 88.677 41.3459 91.8642C41.4417 92.4251 41.9276 92.82 42.4772 92.82C42.5412 92.82 42.6061 92.8144 42.6713 92.8031C43.2973 92.6965 43.718 92.1031 43.6102 91.4782C43.02 88.0207 41.4741 82.86 37.4667 77.9102C33.1603 72.5848 30.8764 65.8659 31.035 58.9934C31.4142 43.5352 43.8199 31.1295 59.2782 30.7514C67.1571 30.5316 74.5974 33.4809 80.2313 38.978C85.8664 44.4773 88.9695 51.8414 88.9695 59.7124C88.9695 66.4223 86.6225 72.9595 82.3606 78.1223C78.4913 82.8286 76.9868 87.9858 76.4058 91.4827C76.3015 92.1087 76.7243 92.7 77.3503 92.8043C77.9764 92.9109 78.5677 92.4858 78.672 91.8598C79.2071 88.639 80.5892 83.8957 84.1343 79.5832C88.7339 74.0121 91.2671 66.9544 91.2671 59.7127C91.2671 51.2168 87.9171 43.2694 81.8356 37.3336C75.7561 31.4011 67.7281 28.2577 59.2221 28.4541C42.5379 28.8623 29.1471 42.252 28.7389 58.9385Z" fill="black"/>
<path d="M82.1557 100.119C82.1557 97.347 79.9008 95.092 77.1286 95.092H42.8723C40.1009 95.092 37.8457 97.347 37.8457 100.119C37.8457 101.689 38.5835 103.075 39.7137 103.997C38.5835 104.92 37.8457 106.306 37.8457 107.876C37.8457 110.648 40.1006 112.903 42.8723 112.903H77.1286C79.9008 112.903 82.1557 110.648 82.1557 107.876C82.1557 106.306 81.4179 104.92 80.2877 103.997C81.4179 103.075 82.1557 101.689 82.1557 100.119ZM79.8581 107.876C79.8581 109.381 78.6342 110.605 77.1286 110.605H42.8723C41.3679 110.605 40.1433 109.381 40.1433 107.876C40.1433 106.37 41.3679 105.146 42.8723 105.146H77.1286C78.634 105.146 79.8581 106.37 79.8581 107.876ZM42.8723 102.848C41.3679 102.848 40.1433 101.625 40.1433 100.119C40.1433 98.6133 41.3679 97.3894 42.8723 97.3894H77.1286C78.6342 97.3894 79.8581 98.6133 79.8581 100.119C79.8581 101.625 78.6342 102.848 77.1286 102.848H42.8723Z" fill="black"/>
<path d="M70.3731 115.918C66.6147 125.237 53.3924 125.242 49.6321 115.918C49.3954 115.329 48.7199 115.049 48.1366 115.282C47.5476 115.52 47.2637 116.19 47.5005 116.778C52.034 128.014 67.9705 128.015 72.5048 116.778C72.7415 116.19 72.4576 115.52 71.8687 115.282C71.2862 115.05 70.6108 115.329 70.3731 115.918Z" fill="black"/>
<path d="M114.879 62.9156C114.879 60.1985 112.667 57.9872 109.95 57.9872H103.011C100.294 57.9872 98.083 60.1983 98.083 62.9156C98.083 65.633 100.294 67.8441 103.011 67.8441H109.95C112.667 67.8441 114.879 65.6327 114.879 62.9156ZM100.381 62.9156C100.381 61.4651 101.561 60.2848 103.012 60.2848H109.95C111.401 60.2848 112.581 61.4651 112.581 62.9156C112.581 64.3662 111.401 65.5465 109.95 65.5465H103.012C101.561 65.5465 100.381 64.3662 100.381 62.9156Z" fill="black"/>
<path d="M64.9301 19.9043V12.9656C64.9301 10.2485 62.719 8.03719 60.0017 8.03719C57.2843 8.03719 55.0732 10.2483 55.0732 12.9656V19.9043C55.0732 22.6214 57.2843 24.8327 60.0017 24.8327C62.719 24.8327 64.9301 22.6214 64.9301 19.9043ZM57.3711 19.9043V12.9656C57.3711 11.5151 58.5514 10.3348 60.0019 10.3348C61.4525 10.3348 62.6328 11.5151 62.6328 12.9656V19.9043C62.6328 21.3548 61.4525 22.5352 60.0019 22.5352C58.5514 22.5352 57.3711 21.3548 57.3711 19.9043Z" fill="black"/>
<path d="M28.1655 24.1125C26.2502 22.1995 23.1281 22.1859 21.2015 24.1092C19.2574 26.0395 19.2759 29.1715 21.1987 31.0793L26.1035 35.9841C28.0141 37.8947 31.113 37.9439 33.067 35.9873C35.0015 34.0702 35.0048 30.937 33.0686 29.0161L28.1655 24.1125ZM31.4453 34.3596C30.4385 35.3693 28.7275 35.3604 27.7286 34.3596L22.8203 29.4513C21.7928 28.433 21.787 26.7649 22.8232 25.7367C23.8701 24.6921 25.5393 24.7373 26.5411 25.7367L31.4458 30.6427L31.4491 30.6459C32.474 31.6629 32.4846 33.3298 31.4453 34.3596Z" fill="black"/>
<path d="M10.0515 57.9872C7.33367 57.9872 5.12305 60.1983 5.12305 62.9156C5.12305 65.633 7.33367 67.8441 10.0515 67.8441H16.9902C19.7073 67.8441 21.9179 65.633 21.9179 62.9156C21.9179 60.1983 19.7073 57.9872 16.9902 57.9872H10.0515ZM19.6205 62.9156C19.6205 64.3662 18.4409 65.5465 16.9904 65.5465H10.0515C8.60094 65.5465 7.42063 64.3662 7.42063 62.9156C7.42063 61.4651 8.60094 60.2848 10.0515 60.2848H16.9902C18.4409 60.2848 19.6205 61.4651 19.6205 62.9156Z" fill="black"/>
<path d="M93.8987 35.9841L98.8022 31.0826C100.733 29.1638 100.74 26.0348 98.8022 24.109C96.8546 22.1684 93.7622 22.1878 91.8378 24.1123L86.9351 29.0149C84.9978 30.9361 84.9997 34.0683 86.9319 35.9841C88.8872 37.9392 91.9829 37.9022 93.8987 35.9841ZM88.5565 30.6429L93.4625 25.737C94.4834 24.716 96.1257 24.6834 97.1804 25.7381C97.1815 25.7381 97.1827 25.7393 97.1827 25.7405C98.2086 26.7572 98.2177 28.4245 97.1804 29.4551L92.2733 34.3598C91.2781 35.3595 89.5707 35.374 88.5533 34.3566C87.526 33.3361 87.519 31.6734 88.5565 30.6429Z" fill="black"/>
<path d="M46.0222 74.7614L48.1539 76.893C48.6362 77.3766 49.3049 77.6536 49.9893 77.6536H51.1907V81.247C51.1907 81.882 51.7044 82.3959 52.3396 82.3959C52.9747 82.3959 53.4885 81.8822 53.4885 81.247V77.6536H58.8533V81.247C58.8533 81.882 59.3671 82.3959 60.0022 82.3959C60.6371 82.3959 61.1511 81.8822 61.1511 81.247V77.6536H66.5148V81.247C66.5148 81.882 67.0286 82.3959 67.6637 82.3959C68.2989 82.3959 68.8126 81.8822 68.8126 81.247V77.6536H70.014C70.7073 77.6536 71.3591 77.3843 71.8482 76.894L73.9799 74.7635C74.4634 74.2812 74.7404 73.6125 74.7404 72.9281V71.7267H78.3339C78.9688 71.7267 79.4828 71.213 79.4828 70.5778C79.4828 69.9429 78.969 69.4289 78.3339 69.4289H74.7404V64.0641H78.3339C78.9688 64.0641 79.4828 63.5503 79.4828 62.9152C79.4828 62.28 78.969 61.7663 78.3339 61.7663H74.7404V56.4014H78.3339C78.9688 56.4014 79.4828 55.8877 79.4828 55.2525C79.4828 54.6176 78.969 54.1036 78.3339 54.1036H74.7404V52.9022C74.7404 52.4646 74.5958 51.6738 74.2075 51.2958L72.0749 49.1632C71.3929 48.4812 70.7577 48.1772 70.014 48.1772H68.8126V44.5837C68.8126 43.9488 68.2989 43.4348 67.6637 43.4348C67.0286 43.4348 66.5148 43.9486 66.5148 44.5837V48.1772H61.1511V44.5837C61.1511 43.9488 60.6374 43.4348 60.0022 43.4348C59.3673 43.4348 58.8533 43.9486 58.8533 44.5837V48.1772H53.4885V44.5837C53.4885 43.9488 52.9747 43.4348 52.3396 43.4348C51.7044 43.4348 51.1907 43.9486 51.1907 44.5837V48.1772H49.9893C49.3049 48.1772 48.6362 48.4542 48.1562 48.9368L46.0225 51.0694C45.5401 51.5517 45.2629 52.2204 45.2629 52.9024V54.1038H41.6694C41.035 54.1038 40.5205 54.6176 40.5205 55.2527C40.5205 55.8877 41.035 56.4016 41.6694 56.4016H45.2629V61.7665H41.6694C41.035 61.7665 40.5205 62.2802 40.5205 62.9154C40.5205 63.5505 41.035 64.0643 41.6694 64.0643H45.2629V69.4291H41.6694C41.035 69.4291 40.5205 69.9429 40.5205 70.578C40.5205 71.213 41.035 71.727 41.6694 71.727H45.2629V72.9284C45.2626 73.6104 45.5399 74.2791 46.0222 74.7614ZM47.5602 52.9029C47.5602 52.8255 47.5916 52.7491 47.6467 52.6943L49.7828 50.5605C49.8355 50.5066 49.9117 50.4752 49.9893 50.4752H70.0136C70.1246 50.4752 70.3557 50.6939 70.45 50.7881L72.4234 52.7616C72.4346 52.8075 72.4424 52.8581 72.4424 52.9029V72.9284C72.4424 73.0057 72.411 73.0821 72.3561 73.137L70.2236 75.2695C70.1675 75.3255 70.0935 75.356 70.0138 75.356H49.989C49.9117 75.356 49.8353 75.3246 49.7804 75.2695L47.6467 73.137C47.5916 73.0819 47.5602 73.0057 47.5602 72.9284V52.9029Z" fill="black"/>
</svg>
