<svg width="120" height="120" viewBox="0 0 120 120" fill="none" xmlns="http://www.w3.org/2000/svg">
<g clip-path="url(#clip0_10249_36471)">
<g clip-path="url(#clip1_10249_36471)">
<path d="M111.223 111.221C120.584 101.86 120.584 86.6821 111.223 77.3208C101.862 67.9596 86.6843 67.9596 77.3231 77.3208C67.9618 86.6821 67.9618 101.86 77.3231 111.221C86.6843 120.582 101.862 120.582 111.223 111.221Z" fill="#EEECFF"/>
<path d="M114.923 106.452C89.4936 112.18 81.7349 85.5614 87.8282 71.1776C77.7205 73.9934 70.3037 83.2655 70.3037 94.2708C70.3037 107.51 81.036 118.242 94.2751 118.242C103.067 118.242 110.751 113.509 114.923 106.452Z" fill="#D3D3FF"/>
<path d="M42.6821 42.6792C52.0433 33.3179 52.0433 18.1404 42.6821 8.77914C33.3208 -0.582098 18.1433 -0.582098 8.78205 8.77914C-0.579187 18.1404 -0.579187 33.3179 8.78205 42.6792C18.1433 52.0404 33.3208 52.0404 42.6821 42.6792Z" fill="#59D5FF"/>
<path d="M46.3811 37.9104C19.9844 45.851 9.33156 16.8202 19.2859 2.63602C9.17851 5.4518 1.76172 14.7239 1.76172 25.7292C1.76172 38.9681 12.494 49.7006 25.7331 49.7006C34.5245 49.7004 42.209 44.967 46.3811 37.9104Z" fill="#00C4FC"/>
<path d="M111.224 42.6797C120.585 33.3185 120.585 18.1409 111.224 8.77969C101.863 -0.581549 86.6853 -0.581546 77.324 8.77969C67.9628 18.1409 67.9628 33.3185 77.324 42.6797C86.6853 52.041 101.863 52.041 111.224 42.6797Z" fill="#38D39A"/>
<path d="M111.224 42.6797C120.585 33.3185 120.585 18.1409 111.224 8.77969C101.863 -0.581549 86.6853 -0.581546 77.324 8.77969C67.9628 18.1409 67.9628 33.3185 77.324 42.6797C86.6853 52.041 101.863 52.041 111.224 42.6797Z" fill="#38D39A"/>
<path d="M114.923 37.9104C88.5264 45.851 77.8736 16.8202 87.8282 2.63602C77.7205 5.4518 70.3037 14.7239 70.3037 25.7292C70.3037 38.9681 81.036 49.7006 94.2751 49.7006C103.067 49.7004 110.751 44.967 114.923 37.9104Z" fill="#00C072"/>
<path d="M42.6821 111.22C52.0433 101.859 52.0433 86.6815 42.6821 77.3203C33.3208 67.959 18.1433 67.959 8.78205 77.3203C-0.579187 86.6815 -0.57919 101.859 8.78205 111.22C18.1433 120.582 33.3208 120.582 42.6821 111.22Z" fill="#FF6E80"/>
<path d="M46.3811 106.452C19.9844 114.393 9.33156 85.362 19.2859 71.1776C9.17851 73.9934 1.76172 83.2655 1.76172 94.2708C1.76172 107.51 12.494 118.242 25.7331 118.242C34.5245 118.242 42.209 113.509 46.3811 106.452Z" fill="#F8475E"/>
<path d="M43.7152 28.2323C45.1262 29.7127 46.8504 31.2921 48.6718 32.7867C50.5737 34.3474 52.5816 35.8153 54.4489 36.9809C56.3619 38.1748 58.8408 36.8112 58.8408 34.556V32.607H73.4021C75.5656 32.607 77.3194 30.8531 77.3194 28.6896V22.6425C77.3194 20.479 75.5656 18.7252 73.4021 18.7252H58.8408V16.7761C58.8408 14.5212 56.3619 13.1573 54.4489 14.3513C52.5816 15.5168 50.5737 16.9847 48.6718 18.5454C46.8504 20.04 45.1262 21.6195 43.7152 23.0998C42.3462 24.536 42.3462 26.7961 43.7152 28.2323Z" fill="#FDC072"/>
<path d="M28.2362 76.2888C29.7165 74.8779 31.296 73.1536 32.7906 71.3323C34.3513 69.4303 35.8192 67.4224 36.9845 65.5552C38.1784 63.6422 36.8148 61.1632 34.5599 61.1632H32.6108V46.602C32.6108 44.4384 30.857 42.6846 28.6935 42.6846H22.6464C20.4828 42.6846 18.729 44.4384 18.729 46.602V61.1632H16.78C14.525 61.1632 13.1612 63.6422 14.3551 65.5552C15.5204 67.4224 16.9885 69.4303 18.549 71.3323C20.0436 73.1536 21.6231 74.8779 23.1034 76.2888C24.5399 77.6578 26.8 77.6578 28.2362 76.2888Z" fill="#FDC072"/>
<path d="M76.2927 91.7677C74.8818 90.2873 73.1575 88.7079 71.3361 87.2133C69.4342 85.6526 67.4263 84.1847 65.559 83.0191C63.6461 81.8252 61.1671 83.1888 61.1671 85.444V87.3931H46.6058C44.4423 87.3931 42.6885 89.1469 42.6885 91.3104V97.3577C42.6885 99.5213 44.4423 101.275 46.6058 101.275H61.1671V103.224C61.1671 105.479 63.6461 106.843 65.559 105.649C67.4263 104.483 69.4342 103.016 71.3361 101.455C73.1575 99.9602 74.8818 98.3808 76.2927 96.9005C77.6617 95.464 77.6617 93.2039 76.2927 91.7677Z" fill="#FDC072"/>
<path d="M118.246 81.7366C118.246 83.4771 117.111 85.0104 115.451 85.5307C113.66 86.0916 111.858 86.1544 110.052 85.924C107.913 85.6514 105.77 84.968 103.634 84.2142C100.197 83.0011 96.7818 81.6061 93.4439 81.4486C90.757 81.3218 88.1205 81.997 85.5635 84.2142V65.1769C88.1205 62.9595 90.757 62.2845 93.4439 62.4113C96.7818 62.5688 100.197 63.964 103.634 65.1769C105.77 65.9306 107.914 66.6141 110.052 66.8866C111.866 67.118 113.677 67.0535 115.475 66.4856C116.849 66.0518 118.246 67.0873 118.246 68.528V81.7366Z" fill="#59D5FF"/>
<path d="M93.4436 81.4486C96.6569 81.6003 99.9419 82.8987 103.249 84.0776C98.935 80.1134 97.8904 73.3444 101.4 64.3758C98.7182 63.4165 96.0571 62.5345 93.4439 62.4113C90.757 62.2845 88.1205 62.9597 85.5635 65.1769V84.2142C88.1203 81.9968 90.7568 81.3218 93.4436 81.4486Z" fill="#00C4FC"/>
<path d="M91.6559 101.171L93.9866 100.76C95.7434 100.45 96.9165 98.775 96.6066 97.0181L90.9348 64.8511C90.6249 63.0942 88.9496 61.9212 87.1927 62.231L84.8621 62.6419C83.1052 62.9517 81.9322 64.627 82.242 66.3839L87.9139 98.551C88.224 100.308 89.8993 101.481 91.6559 101.171Z" fill="#4677D4"/>
<path d="M61.9812 18.7252H58.8389V16.7761C58.8389 14.5212 56.3599 13.1573 54.4469 14.3513C52.5797 15.5166 50.5718 16.9847 48.6698 18.5454C46.8485 20.04 45.1242 21.6195 43.7133 23.0998C42.3443 24.5362 42.3443 26.7961 43.7133 28.2326C45.1242 29.7129 46.8485 31.2923 48.6698 32.787C50.5718 34.3477 52.5797 35.8155 54.4469 36.9811C56.3599 38.175 58.8389 36.8114 58.8389 34.5563V32.6074H65.1286C62.2336 29.3365 61.5897 22.5525 61.9812 18.7252Z" fill="#FF9A5C"/>
<path d="M55.3411 87.3928H46.6039C44.4404 87.3928 42.6865 89.1466 42.6865 91.3102V97.3575C42.6865 99.521 44.4404 101.275 46.6039 101.275H57.9593C55.3177 97.6451 54.8459 90.8817 55.3411 87.3928Z" fill="#FF9A5C"/>
<path d="M34.4253 69.2513C24.8593 68.0196 21.9125 51.2974 25.5146 42.6846H22.6444C20.4809 42.6846 18.7271 44.4384 18.7271 46.602V61.1632H16.778C14.5231 61.1632 13.1593 63.6422 14.3532 65.5552C15.5185 67.4224 16.9866 69.4303 18.5471 71.3323C20.0417 73.1536 21.6211 74.8779 23.1014 76.2888C24.5379 77.6578 26.7978 77.6578 28.234 76.2888C29.7143 74.8779 31.2938 73.1536 32.7884 71.3323C33.3497 70.6484 33.8979 69.9509 34.4253 69.2513Z" fill="#FF9A5C"/>
<path d="M43.7133 28.2323C45.1242 29.7127 46.8485 31.2921 48.6698 32.7867C50.5718 34.3474 52.5797 35.8153 54.4469 36.9809C56.3599 38.1748 58.8389 36.8112 58.8389 34.556V32.607H73.4001C75.5637 32.607 77.3175 30.8531 77.3175 28.6896V22.6425C77.3175 20.479 75.5637 18.7252 73.4001 18.7252H58.8389V16.7761C58.8389 14.5212 56.3599 13.1573 54.4469 14.3513C52.5797 15.5168 50.5718 16.9847 48.6698 18.5454C46.8485 20.04 45.1242 21.6195 43.7133 23.0998C42.3443 24.536 42.3443 26.7961 43.7133 28.2323Z" stroke="black" stroke-width="3.51562" stroke-miterlimit="10" stroke-linecap="round" stroke-linejoin="round"/>
<path d="M28.2343 76.2888C29.7146 74.8779 31.294 73.1536 32.7886 71.3323C34.3493 69.4303 35.8172 67.4224 36.9825 65.5551C38.1764 63.6422 36.8128 61.1632 34.5579 61.1632H32.6089V46.6019C32.6089 44.4384 30.855 42.6846 28.6915 42.6846H22.6444C20.4809 42.6846 18.7271 44.4384 18.7271 46.6019V61.1632H16.778C14.5231 61.1632 13.1593 63.6422 14.3532 65.5551C15.5185 67.4224 16.9866 69.4303 18.5471 71.3323C20.0417 73.1536 21.6211 74.8779 23.1014 76.2888C24.5379 77.6578 26.798 77.6578 28.2343 76.2888Z" stroke="black" stroke-width="3.51562" stroke-miterlimit="10" stroke-linecap="round" stroke-linejoin="round"/>
<path d="M76.2907 91.7677C74.8798 90.2873 73.1555 88.7079 71.3342 87.2133C69.4322 85.6526 67.4243 84.1847 65.5571 83.0191C63.6441 81.8252 61.1651 83.1888 61.1651 85.444V87.3931H46.6039C44.4404 87.3931 42.6865 89.1469 42.6865 91.3104V97.3577C42.6865 99.5213 44.4404 101.275 46.6039 101.275H61.1651V103.224C61.1651 105.479 63.6441 106.843 65.5571 105.649C67.4243 104.483 69.4322 103.016 71.3342 101.455C73.1555 99.9602 74.8798 98.3808 76.2907 96.9005C77.6597 95.464 77.6597 93.2039 76.2907 91.7677Z" stroke="black" stroke-width="3.51562" stroke-miterlimit="10" stroke-linecap="round" stroke-linejoin="round"/>
<path d="M91.654 101.171L93.9846 100.76C95.7415 100.45 96.9145 98.775 96.6047 97.0181L90.9328 64.8511C90.623 63.0942 88.9476 61.9212 87.1908 62.231L84.8601 62.6419C83.1033 62.9517 81.9302 64.627 82.2401 66.3839L87.9119 98.551C88.222 100.308 89.8973 101.481 91.654 101.171Z" stroke="black" stroke-width="3.51562" stroke-miterlimit="10" stroke-linecap="round" stroke-linejoin="round"/>
<path d="M106.64 5.19047C103.029 3.01148 98.7972 1.75781 94.2723 1.75781C83.4702 1.75781 74.338 8.9032 71.3418 18.7252" stroke="black" stroke-width="3.51562" stroke-miterlimit="10" stroke-linecap="round" stroke-linejoin="round"/>
<path d="M71.3047 32.6072C74.2611 42.4938 83.4247 49.7006 94.2727 49.7006C107.512 49.7006 118.244 38.9684 118.244 25.7292C118.244 20.0665 116.281 14.8624 112.997 10.7606" stroke="black" stroke-width="3.51562" stroke-miterlimit="10" stroke-linecap="round" stroke-linejoin="round"/>
<path d="M32.6094 48.6973C40.2627 46.4088 46.3095 40.4009 48.6509 32.7708" stroke="black" stroke-width="3.51562" stroke-miterlimit="10" stroke-linecap="round" stroke-linejoin="round"/>
<path d="M48.6202 18.5866C45.5806 8.83594 36.4827 1.75781 25.7312 1.75781C12.492 1.75781 1.75977 12.4901 1.75977 25.7292C1.75977 36.5313 8.90516 45.6635 18.7269 48.6598" stroke="black" stroke-width="3.51562" stroke-miterlimit="10" stroke-linecap="round" stroke-linejoin="round"/>
<path d="M15.292 115.856C18.4476 117.385 21.9893 118.242 25.7313 118.242C36.5334 118.242 45.6656 111.097 48.6618 101.275" stroke="black" stroke-width="3.51562" stroke-miterlimit="10" stroke-linecap="round" stroke-linejoin="round"/>
<path d="M18.5886 71.3817C8.83789 74.4213 1.75977 83.5193 1.75977 94.2708C1.75977 100.666 4.26383 106.476 8.34477 110.774" stroke="black" stroke-width="3.51562" stroke-miterlimit="10" stroke-linecap="round" stroke-linejoin="round"/>
<path d="M48.6989 87.3928C46.4105 79.7395 40.4025 73.6927 32.7725 71.3513" stroke="black" stroke-width="3.51562" stroke-miterlimit="10" stroke-linecap="round" stroke-linejoin="round"/>
<path d="M93.8648 81.4781C97.0683 81.7266 100.34 83.0524 103.632 84.2145C105.768 84.9682 107.912 85.6516 110.05 85.9242C111.856 86.1544 113.658 86.0916 115.448 85.5309C117.109 85.0106 118.244 83.4773 118.244 81.7369V68.5282C118.244 67.0875 116.846 66.052 115.473 66.4859C113.674 67.0538 111.864 67.1182 110.05 66.8869C107.911 66.6143 105.768 65.9309 103.632 65.1771C100.195 63.964 96.7798 62.569 93.4418 62.4115C92.1827 62.3522 90.9352 62.4722 89.7012 62.8409" stroke="black" stroke-width="3.51562" stroke-miterlimit="10" stroke-linecap="round" stroke-linejoin="round"/>
<path d="M71.3838 101.413C74.4234 111.164 83.5214 118.242 94.2728 118.242C107.512 118.242 118.244 107.51 118.244 94.2708C118.244 91.0127 117.593 87.9073 116.416 85.0753" stroke="black" stroke-width="3.51562" stroke-miterlimit="10" stroke-linecap="round" stroke-linejoin="round"/>
<path d="M83.3905 72.9068C77.6643 75.8297 73.2693 80.9869 71.3535 87.2292" stroke="black" stroke-width="3.51562" stroke-miterlimit="10" stroke-linecap="round" stroke-linejoin="round"/>
<path d="M90.8496 16.7273H94.6978V34.7309" stroke="black" stroke-width="3.51562" stroke-miterlimit="10" stroke-linecap="round" stroke-linejoin="round"/>
<path d="M30.3646 33.1917C30.3646 33.1917 22.0063 33.2967 21.6105 33.1648C21.2146 33.0328 22.2452 32.3358 27.7253 24.506C28.7488 23.0438 29.312 21.8102 29.5518 20.7766L29.6366 20.1122C29.6366 17.6845 27.6686 15.7165 25.2409 15.7165C23.1046 15.7165 21.3243 17.2404 20.9277 19.2602" stroke="black" stroke-width="3.51562" stroke-miterlimit="10" stroke-linecap="round" stroke-linejoin="round"/>
<path d="M21.0034 90.1275C21.4293 87.9593 23.3404 86.3236 25.6335 86.3236C28.2395 86.3236 30.3522 88.4362 30.3522 91.0423C30.3522 93.6483 28.2395 95.7609 25.6335 95.7609C28.2395 95.7609 30.3522 97.8736 30.3522 100.48C30.3522 103.086 28.2395 105.198 25.6335 105.198C23.2508 105.198 21.2807 103.432 20.9605 101.138C20.9305 100.923 20.915 100.703 20.915 100.48" stroke="black" stroke-width="3.51562" stroke-miterlimit="10" stroke-linecap="round" stroke-linejoin="round"/>
<path d="M46.0486 71.8734L48.1802 74.0051C48.6626 74.4886 49.3313 74.7656 50.0156 74.7656H51.217V78.3591C51.217 78.994 51.7308 79.508 52.3659 79.508C53.0011 79.508 53.5148 78.9942 53.5148 78.3591V74.7656H58.8797V78.3591C58.8797 78.994 59.3934 79.508 60.0286 79.508C60.6635 79.508 61.1775 78.9942 61.1775 78.3591V74.7656H66.5412V78.3591C66.5412 78.994 67.0549 79.508 67.6901 79.508C68.3252 79.508 68.839 78.9942 68.839 78.3591V74.7656H70.0404C70.7337 74.7656 71.3855 74.4963 71.8746 74.006L74.0062 71.8755C74.4898 71.3932 74.7668 70.7245 74.7668 70.0402V68.8387H78.3602C78.9952 68.8387 79.5091 68.325 79.5091 67.6898C79.5091 67.0549 78.9954 66.5409 78.3602 66.5409H74.7668V61.1761H78.3602C78.9952 61.1761 79.5091 60.6623 79.5091 60.0272C79.5091 59.392 78.9954 58.8783 78.3602 58.8783H74.7668V53.5134H78.3602C78.9952 53.5134 79.5091 52.9997 79.5091 52.3645C79.5091 51.7296 78.9954 51.2156 78.3602 51.2156H74.7668V50.0142C74.7668 49.5766 74.6222 48.7859 74.2338 48.4078L72.1013 46.2752C71.4192 45.5932 70.7841 45.2892 70.0404 45.2892H68.839V41.6958C68.839 41.0609 68.3252 40.5469 67.6901 40.5469C67.0549 40.5469 66.5412 41.0606 66.5412 41.6958V45.2892H61.1775V41.6958C61.1775 41.0609 60.6637 40.5469 60.0286 40.5469C59.3937 40.5469 58.8797 41.0606 58.8797 41.6958V45.2892H53.5148V41.6958C53.5148 41.0609 53.0011 40.5469 52.3659 40.5469C51.7308 40.5469 51.217 41.0606 51.217 41.6958V45.2892H50.0156C49.3313 45.2892 48.6626 45.5662 48.1826 46.0488L46.0488 48.1814C45.5665 48.6637 45.2892 49.3324 45.2892 50.0145V51.2159H41.6958C41.0613 51.2159 40.5469 51.7296 40.5469 52.3648C40.5469 52.9997 41.0613 53.5137 41.6958 53.5137H45.2892V58.8785H41.6958C41.0613 58.8785 40.5469 59.3923 40.5469 60.0274C40.5469 60.6626 41.0613 61.1763 41.6958 61.1763H45.2892V66.5412H41.6958C41.0613 66.5412 40.5469 67.0549 40.5469 67.6901C40.5469 68.325 41.0613 68.839 41.6958 68.839H45.2892V70.0404C45.289 70.7224 45.5662 71.3911 46.0486 71.8734ZM47.5866 50.0149C47.5866 49.9376 47.618 49.8612 47.673 49.8063L49.8091 47.6726C49.8619 47.6187 49.938 47.5873 50.0156 47.5873H70.0399C70.151 47.5873 70.3821 47.8059 70.4763 47.9002L72.4498 49.8736C72.461 49.9195 72.4687 49.9702 72.4687 50.0149V70.0404C72.4687 70.1177 72.4373 70.1941 72.3825 70.249L70.2499 72.3816C70.1939 72.4376 70.1198 72.4681 70.0402 72.4681H50.0154C49.938 72.4681 49.8616 72.4366 49.8068 72.3816L47.673 70.249C47.618 70.1939 47.5866 70.1177 47.5866 70.0404V50.0149Z" fill="black"/>
<path d="M73.5858 49.9837V70.0083C73.5858 70.3912 73.4337 70.7587 73.1627 71.0297L71.0297 73.1627C70.7587 73.4337 70.3915 73.5858 70.0083 73.5858H49.9838C49.6008 73.5858 49.2333 73.4337 48.9623 73.1627L46.8293 71.0297C46.5584 70.7587 46.4062 70.3915 46.4062 70.0083V49.9837C46.4062 49.6008 46.5584 49.2333 46.8293 48.9623L48.9623 46.8293C49.2333 46.5584 49.6005 46.4062 49.9838 46.4062H70.0083C70.3912 46.4062 70.7587 46.5584 71.0297 46.8293L73.1627 48.9623C73.4337 49.2333 73.5858 49.6008 73.5858 49.9837Z" fill="#392B9E"/>
<path d="M58.9126 66.3424C59.5475 66.3424 60.0615 65.8286 60.0615 65.1935V59.9735V57.3628C60.0615 55.2907 58.3754 53.6046 56.3021 53.6046C54.23 53.6046 52.5439 55.2907 52.5439 57.3628V59.9735V65.1935C52.5439 65.8284 53.0577 66.3424 53.6929 66.3424C54.3278 66.3424 54.8418 65.8286 54.8418 65.1935V61.1222H57.7642V65.1935C57.7639 65.8286 58.2777 66.3424 58.9126 66.3424ZM54.8415 58.8248V57.363C54.8415 56.5575 55.4966 55.9024 56.3021 55.9024C57.1077 55.9024 57.7639 56.5575 57.7639 57.363V58.8248H54.8415Z" fill="white"/>
<path d="M66.2999 55.9024C66.9348 55.9024 67.4488 55.3886 67.4488 54.7535C67.4488 54.1186 66.9351 53.6046 66.2999 53.6046H62.5473C61.9124 53.6046 61.3984 54.1183 61.3984 54.7535C61.3984 55.3884 61.9122 55.9024 62.5473 55.9024H63.2744V64.3233H62.5473C61.9124 64.3233 61.3984 64.837 61.3984 65.4722C61.3984 66.1073 61.9122 66.6211 62.5473 66.6211H66.2999C66.9348 66.6211 67.4488 66.1073 67.4488 65.4722C67.4488 64.837 66.9351 64.3233 66.2999 64.3233H65.5717V55.9024H66.2999Z" fill="white"/>
</g>
</g>
<defs>
<clipPath id="clip0_10249_36471">
<rect width="120" height="120" fill="white"/>
</clipPath>
<clipPath id="clip1_10249_36471">
<rect width="120" height="120" fill="white"/>
</clipPath>
</defs>
</svg>
