<svg width="120" height="126" viewBox="0 0 120 126" fill="none" xmlns="http://www.w3.org/2000/svg">
<g clip-path="url(#clip0_10249_36450)">
<path fill-rule="evenodd" clip-rule="evenodd" d="M10.029 23.2151H110.035C112.025 23.2151 113.931 24.0056 115.339 25.4127C116.743 26.8178 117.534 28.7249 117.534 30.715C117.534 46.8254 117.534 79.5877 117.534 95.698C117.534 97.6862 116.743 99.5933 115.339 101C113.931 102.405 112.025 103.196 110.035 103.196C89.2117 103.196 30.8519 103.196 10.029 103.196C5.88881 103.196 2.5293 99.8383 2.5293 95.698V30.715C2.5293 28.7249 3.32041 26.8178 4.72486 25.4127C6.1328 24.0056 8.03906 23.2151 10.029 23.2151Z" fill="#C3E5DB"/>
<path fill-rule="evenodd" clip-rule="evenodd" d="M10.029 23.2151H110.035C112.025 23.2151 113.931 24.0056 115.339 25.4127C116.743 26.8178 117.534 28.7249 117.534 30.715C117.534 46.8254 117.534 79.5877 117.534 95.698C117.534 97.6862 116.743 99.5933 115.339 101C113.931 102.405 112.025 103.196 110.035 103.196C89.2117 103.196 30.8519 103.196 10.029 103.196C5.88881 103.196 2.5293 99.8383 2.5293 95.698V30.715C2.5293 28.7249 3.32041 26.8178 4.72486 25.4127C6.1328 24.0056 8.03906 23.2151 10.029 23.2151Z" fill="#C3E5DB"/>
<path fill-rule="evenodd" clip-rule="evenodd" d="M65 20.4947V105.495H110C112.65 105.495 115.2 104.441 117.075 102.566C118.95 100.691 120 98.1472 120 95.4947C120 79.3797 120 46.6097 120 30.4947C120 27.8422 118.95 25.2984 117.075 23.4234C115.2 21.5484 112.65 20.4947 110 20.4947H65Z" fill="#9ECEBF"/>
<path fill-rule="evenodd" clip-rule="evenodd" d="M46.25 102.995L85.7376 63.5122C86.8626 62.3809 88.4 61.7447 90 61.7447C91.6 61.7447 93.1374 62.3809 94.2624 63.5122L117.5 86.7447V95.4947C117.5 97.4834 116.712 99.3909 115.3 100.798C113.9 102.205 111.988 102.995 110 102.995H46.25Z" fill="#278445"/>
<path fill-rule="evenodd" clip-rule="evenodd" d="M2.5 81.7447L33.5999 50.6459C35.2999 48.9484 37.6 47.9947 40 47.9947C42.4 47.9947 44.7001 48.9484 46.4001 50.6459L98.75 102.995H10C5.8625 102.995 2.5 99.6372 2.5 95.4947V81.7447Z" fill="#2ABD59"/>
<path fill-rule="evenodd" clip-rule="evenodd" d="M98.75 102.995H65V69.2447L98.75 102.995Z" fill="#2A934C"/>
<path d="M83.7078 50.4684C88.5386 50.4684 92.4547 46.5523 92.4547 41.7215C92.4547 36.8908 88.5386 32.9747 83.7078 32.9747C78.877 32.9747 74.9609 36.8908 74.9609 41.7215C74.9609 46.5523 78.877 50.4684 83.7078 50.4684Z" fill="#E4E3D3"/>
<path fill-rule="evenodd" clip-rule="evenodd" d="M20.0174 40.5147C19.9681 30.8606 12.1535 23.1828 2.51367 23.0109C12.1391 22.8311 19.9474 15.1836 20.0174 5.50719C20.0874 15.1756 27.8527 22.9091 37.5212 23.0109L37.4337 23.0125C27.8368 23.143 20.1097 30.8622 20.0174 40.4494V40.5147Z" fill="#15AAF7"/>
<path fill-rule="evenodd" clip-rule="evenodd" d="M70 2.99469H60C58.625 2.99469 57.5 4.11469 57.5 5.49469C57.5 6.87469 58.625 7.99469 60 7.99469H62.5V20.4947H45C43.625 20.4947 42.5 21.6147 42.5 22.9947C42.5 24.3747 43.625 25.4947 45 25.4947H62.5V63.2097L48.1625 48.8784C46 46.7122 43.0625 45.4947 40 45.4947C36.9375 45.4947 34 46.7122 31.8375 48.8784L5 75.7097V30.4947C5 29.1147 3.875 27.9947 2.5 27.9947C1.125 27.9947 0 29.1147 0 30.4947V95.4947C0 98.1472 1.05011 100.691 2.92511 102.566C4.80011 104.441 7.35 105.495 10 105.495H62.5V117.995H60C58.625 117.995 57.5 119.115 57.5 120.495C57.5 121.875 58.625 122.995 60 122.995H70C71.375 122.995 72.5 121.875 72.5 120.495C72.5 119.115 71.375 117.995 70 117.995H67.5V105.495H110C112.65 105.495 115.2 104.441 117.075 102.566C118.95 100.691 120 98.1472 120 95.4947C120 80.2397 120 45.7497 120 30.4947C120 24.9722 115.525 20.4947 110 20.4947H67.5V7.99469H70C71.375 7.99469 72.5 6.87469 72.5 5.49469C72.5 4.11469 71.375 2.99469 70 2.99469ZM33.125 117.995H18.75C17.375 117.995 16.25 119.115 16.25 120.495C16.25 121.875 17.375 122.995 18.75 122.995H33.125C34.5 122.995 35.625 121.875 35.625 120.495C35.625 119.115 34.5 117.995 33.125 117.995ZM46.25 117.995H41.25C39.875 117.995 38.75 119.115 38.75 120.495C38.75 121.875 39.875 122.995 41.25 122.995H46.25C47.625 122.995 48.75 121.875 48.75 120.495C48.75 119.115 47.625 117.995 46.25 117.995ZM7.5 117.995H2.5C1.125 117.995 0 119.115 0 120.495C0 121.875 1.125 122.995 2.5 122.995H7.5C8.875 122.995 10 121.875 10 120.495C10 119.115 8.875 117.995 7.5 117.995ZM12.5 109.245H3.75C2.375 109.245 1.25 110.365 1.25 111.745C1.25 113.125 2.375 114.245 3.75 114.245H12.5C13.875 114.245 15 113.125 15 111.745C15 110.365 13.875 109.245 12.5 109.245ZM51.25 109.245H27.5C26.125 109.245 25 110.365 25 111.745C25 113.125 26.125 114.245 27.5 114.245H51.25C52.625 114.245 53.75 113.125 53.75 111.745C53.75 110.365 52.625 109.245 51.25 109.245ZM115 87.7797L92.5 65.2797C91.8375 64.6172 90.9375 64.2447 90 64.2447C89.0625 64.2447 88.1625 64.6172 87.5 65.2797L76.0376 76.7447L99.7876 100.495H110C111.325 100.495 112.6 99.9684 113.538 99.0297C114.475 98.0922 115 96.8209 115 95.4947V87.7797ZM92.7124 100.495L67.5 75.2797V100.495H92.7124ZM62.5 70.2797L44.6375 52.4134C43.4 51.1847 41.7375 50.4947 40 50.4947C38.2625 50.4947 36.6 51.1847 35.3625 52.4134L5 82.7797V95.4947C5 96.8209 5.5249 98.0922 6.4624 99.0297C7.3999 99.9684 8.675 100.495 10 100.495H62.5V70.2797ZM67.5 25.4947V68.2097L72.5 73.2097L83.9624 61.7447C85.5624 60.1434 87.7375 59.2447 90 59.2447C92.2625 59.2447 94.4376 60.1434 96.0376 61.7447L115 80.7097V30.4947C115 27.7334 112.763 25.4947 110 25.4947H67.5ZM83.75 30.4947C77.5375 30.4947 72.5 35.5359 72.5 41.7447C72.5 47.9534 77.5375 52.9947 83.75 52.9947C89.9625 52.9947 95 47.9534 95 41.7447C95 35.5359 89.9625 30.4947 83.75 30.4947ZM83.75 35.4947C87.2 35.4947 90 38.2947 90 41.7447C90 45.1947 87.2 47.9947 83.75 47.9947C80.3 47.9947 77.5 45.1947 77.5 41.7447C77.5 38.2947 80.3 35.4947 83.75 35.4947ZM2.44995 20.4947C1.08745 20.5209 0 21.6334 0 22.9959C0 24.3584 1.08745 25.4697 2.44995 25.4947C10.7375 25.6422 17.4625 32.2184 17.5 40.5072C17.5125 41.8834 18.625 42.9947 20 42.9947C21.375 42.9947 22.4875 41.8847 22.5 40.5097C22.55 32.2322 29.2375 25.5684 37.525 25.4947C38.9 25.4822 40 24.3684 40 22.9972C40 21.6259 38.9 20.5097 37.525 20.4947C29.225 20.4072 22.5625 13.7747 22.5 5.47594C22.4875 4.10344 21.375 2.99469 20 2.99469C18.625 2.99469 17.5125 4.10344 17.5 5.47594C17.4375 13.7872 10.725 20.3397 2.44995 20.4947ZM12.0251 22.9922C15.3751 21.1622 18.1375 18.4247 19.9875 15.0984C21.825 18.4209 24.5751 21.1622 27.9001 22.9934C24.5751 24.8272 21.825 27.5684 20 30.8847C18.15 27.5622 15.3751 24.8222 12.0251 22.9922ZM41.875 11.7447H33.75C32.375 11.7447 31.25 12.8647 31.25 14.2447C31.25 15.6247 32.375 16.7447 33.75 16.7447H41.875C43.25 16.7447 44.375 15.6247 44.375 14.2447C44.375 12.8647 43.25 11.7447 41.875 11.7447ZM55 11.7447H50C48.625 11.7447 47.5 12.8647 47.5 14.2447C47.5 15.6247 48.625 16.7447 50 16.7447H55C56.375 16.7447 57.5 15.6247 57.5 14.2447C57.5 12.8647 56.375 11.7447 55 11.7447ZM7.5 11.7447H2.5C1.125 11.7447 0 12.8647 0 14.2447C0 15.6247 1.125 16.7447 2.5 16.7447H7.5C8.875 16.7447 10 15.6247 10 14.2447C10 12.8647 8.875 11.7447 7.5 11.7447ZM32.5 2.99469H27.5C26.125 2.99469 25 4.11469 25 5.49469C25 6.87469 26.125 7.99469 27.5 7.99469H32.5C33.875 7.99469 35 6.87469 35 5.49469C35 4.11469 33.875 2.99469 32.5 2.99469ZM12.5 2.99469H3.75C2.375 2.99469 1.25 4.11469 1.25 5.49469C1.25 6.87469 2.375 7.99469 3.75 7.99469H12.5C13.875 7.99469 15 6.87469 15 5.49469C15 4.11469 13.875 2.99469 12.5 2.99469ZM51.25 2.99469H40C38.625 2.99469 37.5 4.11469 37.5 5.49469C37.5 6.87469 38.625 7.99469 40 7.99469H51.25C52.625 7.99469 53.75 6.87469 53.75 5.49469C53.75 4.11469 52.625 2.99469 51.25 2.99469Z" fill="black"/>
</g>
<path d="M48.7779 77.5878L51.404 80.2139C51.9982 80.8096 52.822 81.1509 53.6651 81.1509H55.1452V85.5778C55.1452 86.36 55.7781 86.9932 56.5606 86.9932C57.3431 86.9932 57.976 86.3603 57.976 85.5778V81.1509H64.5853V85.5778C64.5853 86.36 65.2182 86.9932 66.0007 86.9932C66.7829 86.9932 67.4161 86.3603 67.4161 85.5778V81.1509H74.024V85.5778C74.024 86.36 74.6569 86.9932 75.4394 86.9932C76.2219 86.9932 76.8548 86.3603 76.8548 85.5778V81.1509H78.3349C79.189 81.1509 79.9919 80.8191 80.5946 80.215L83.2206 77.5904C83.8163 76.9962 84.1576 76.1724 84.1576 75.3293V73.8492H88.5846C89.3668 73.8492 90 73.2163 90 72.4338C90 71.6516 89.3671 71.0184 88.5846 71.0184H84.1576V64.4091H88.5846C89.3668 64.4091 90 63.7762 90 62.9937C90 62.2112 89.3671 61.5783 88.5846 61.5783H84.1576V54.969H88.5846C89.3668 54.969 90 54.3361 90 53.5536C90 52.7714 89.3671 52.1382 88.5846 52.1382H84.1576V50.6581C84.1576 50.119 83.9795 49.1448 83.501 48.6791L80.8738 46.0518C80.0335 45.2116 79.251 44.8371 78.3349 44.8371H76.8548V40.4101C76.8548 39.6279 76.2219 38.9947 75.4394 38.9947C74.6569 38.9947 74.024 39.6276 74.024 40.4101V44.8371H67.4161V40.4101C67.4161 39.6279 66.7832 38.9947 66.0007 38.9947C65.2185 38.9947 64.5853 39.6276 64.5853 40.4101V44.8371H57.976V40.4101C57.976 39.6279 57.3431 38.9947 56.5606 38.9947C55.7781 38.9947 55.1452 39.6276 55.1452 40.4101V44.8371H53.6651C52.822 44.8371 51.9982 45.1784 51.4069 45.7729L48.7782 48.4001C48.184 48.9944 47.8424 49.8181 47.8424 50.6584V52.1385H43.4154C42.6338 52.1385 42 52.7714 42 53.5539C42 54.3361 42.6338 54.9693 43.4154 54.9693H47.8424V61.5786H43.4154C42.6338 61.5786 42 62.2115 42 62.994C42 63.7765 42.6338 64.4094 43.4154 64.4094H47.8424V71.0186H43.4154C42.6338 71.0186 42 71.6516 42 72.4341C42 73.2163 42.6338 73.8495 43.4154 73.8495H47.8424V75.3296C47.8421 76.1698 48.1837 76.9936 48.7779 77.5878ZM50.6726 50.659C50.6726 50.5637 50.7113 50.4695 50.7792 50.402L53.4108 47.7733C53.4757 47.7069 53.5696 47.6682 53.6651 47.6682H78.3343C78.4711 47.6682 78.7558 47.9376 78.8719 48.0536L81.3031 50.4848C81.317 50.5414 81.3265 50.6038 81.3265 50.659V75.3296C81.3265 75.4248 81.2878 75.519 81.2203 75.5865L78.593 78.2138C78.524 78.2828 78.4327 78.3203 78.3346 78.3203H53.6648C53.5696 78.3203 53.4754 78.2816 53.4079 78.2138L50.7792 75.5865C50.7113 75.5187 50.6726 75.4248 50.6726 75.3296V50.659Z" fill="black"/>
<path d="M82.7029 50.62V75.2895C82.7029 75.7613 82.5155 76.214 82.1817 76.5478L79.5539 79.1756C79.2201 79.5094 78.7676 79.6968 78.2955 79.6968H53.6261C53.1543 79.6968 52.7015 79.5094 52.3678 79.1756L49.7399 76.5478C49.4061 76.214 49.2188 75.7616 49.2188 75.2895V50.62C49.2188 50.1482 49.4061 49.6955 49.7399 49.3617L52.3678 46.7339C52.7015 46.4001 53.154 46.2127 53.6261 46.2127H78.2955C78.7673 46.2127 79.2201 46.4001 79.5539 46.7339L82.1817 49.3617C82.5155 49.6955 82.7029 50.1482 82.7029 50.62Z" fill="#392B9E"/>
<path d="M64.6321 70.7732C65.4143 70.7732 66.0475 70.1403 66.0475 69.3578V62.927V59.7107C66.0475 57.1579 63.9703 55.0807 61.4161 55.0807C58.8633 55.0807 56.7861 57.1579 56.7861 59.7107V62.927V69.3578C56.7861 70.14 57.4191 70.7732 58.2015 70.7732C58.9837 70.7732 59.6169 70.1403 59.6169 69.3578V64.3421H63.2173V69.3578C63.217 70.1403 63.8499 70.7732 64.6321 70.7732ZM59.6167 61.5119V59.711C59.6167 58.7186 60.4237 57.9116 61.4161 57.9116C62.4085 57.9116 63.217 58.7186 63.217 59.711V61.5119H59.6167Z" fill="white"/>
<path d="M73.7259 57.9116C74.5081 57.9116 75.1413 57.2786 75.1413 56.4961C75.1413 55.7139 74.5084 55.0807 73.7259 55.0807H69.1029C68.3207 55.0807 67.6875 55.7137 67.6875 56.4961C67.6875 57.2783 68.3204 57.9116 69.1029 57.9116H69.9986V68.2857H69.1029C68.3207 68.2857 67.6875 68.9186 67.6875 69.7011C67.6875 70.4836 68.3204 71.1165 69.1029 71.1165H73.7259C74.5081 71.1165 75.1413 70.4836 75.1413 69.7011C75.1413 68.9186 74.5084 68.2857 73.7259 68.2857H72.8288V57.9116H73.7259Z" fill="white"/>
<defs>
<clipPath id="clip0_10249_36450">
<rect width="120" height="120" fill="white" transform="translate(0 2.99469)"/>
</clipPath>
</defs>
</svg>
